<mxfile host="app.diagrams.net" agent="Mozilla/5.0 (Windows NT 6.3; WOW64) AppleWebKit/537.36 (KHTML, like Gecko) Chrome/109.0.0.0 Safari/537.36 OPR/95.0.0.0" version="24.7.6">
  <diagram id="Mq-xWuWfwmhaQncNY9Wz" name="Страница — 3">
    <mxGraphModel dx="1050" dy="603" grid="1" gridSize="10" guides="1" tooltips="1" connect="1" arrows="1" fold="1" page="1" pageScale="1" pageWidth="827" pageHeight="1169" math="0" shadow="0">
      <root>
        <mxCell id="0" />
        <mxCell id="1" parent="0" />
        <mxCell id="7e6HY9wKCkgABEW1pDzp-1" value="&lt;h1 style=&quot;margin-top: 0px;&quot;&gt;Template Method&lt;/h1&gt;&lt;p&gt;Диаграмма классов паттерна &quot;Шаблонный метод&quot;&lt;/p&gt;" style="text;html=1;whiteSpace=wrap;overflow=hidden;rounded=0;" vertex="1" parent="1">
          <mxGeometry width="520" height="80" as="geometry" />
        </mxCell>
        <mxCell id="7e6HY9wKCkgABEW1pDzp-3" value="AbstaractClass" style="swimlane;fontStyle=0;childLayout=stackLayout;horizontal=1;startSize=26;fillColor=none;horizontalStack=0;resizeParent=1;resizeParentMax=0;resizeLast=0;collapsible=1;marginBottom=0;whiteSpace=wrap;html=1;" vertex="1" parent="1">
          <mxGeometry x="320" y="160" width="160" height="104" as="geometry" />
        </mxCell>
        <mxCell id="7e6HY9wKCkgABEW1pDzp-4" value="+ TemplateMethod()" style="text;strokeColor=none;fillColor=none;align=left;verticalAlign=top;spacingLeft=4;spacingRight=4;overflow=hidden;rotatable=0;points=[[0,0.5],[1,0.5]];portConstraint=eastwest;whiteSpace=wrap;html=1;" vertex="1" parent="7e6HY9wKCkgABEW1pDzp-3">
          <mxGeometry y="26" width="160" height="26" as="geometry" />
        </mxCell>
        <mxCell id="7e6HY9wKCkgABEW1pDzp-5" value="# PrimativeOperation1()" style="text;strokeColor=none;fillColor=none;align=left;verticalAlign=top;spacingLeft=4;spacingRight=4;overflow=hidden;rotatable=0;points=[[0,0.5],[1,0.5]];portConstraint=eastwest;whiteSpace=wrap;html=1;" vertex="1" parent="7e6HY9wKCkgABEW1pDzp-3">
          <mxGeometry y="52" width="160" height="26" as="geometry" />
        </mxCell>
        <mxCell id="7e6HY9wKCkgABEW1pDzp-6" value="# PrimativeOperation2()" style="text;strokeColor=none;fillColor=none;align=left;verticalAlign=top;spacingLeft=4;spacingRight=4;overflow=hidden;rotatable=0;points=[[0,0.5],[1,0.5]];portConstraint=eastwest;whiteSpace=wrap;html=1;" vertex="1" parent="7e6HY9wKCkgABEW1pDzp-3">
          <mxGeometry y="78" width="160" height="26" as="geometry" />
        </mxCell>
        <mxCell id="7e6HY9wKCkgABEW1pDzp-7" value="ConcreteClass" style="swimlane;fontStyle=0;childLayout=stackLayout;horizontal=1;startSize=26;fillColor=none;horizontalStack=0;resizeParent=1;resizeParentMax=0;resizeLast=0;collapsible=1;marginBottom=0;whiteSpace=wrap;html=1;" vertex="1" parent="1">
          <mxGeometry x="560" y="160" width="160" height="104" as="geometry" />
        </mxCell>
        <mxCell id="7e6HY9wKCkgABEW1pDzp-8" value="+ TemplateMethod()" style="text;strokeColor=none;fillColor=none;align=left;verticalAlign=top;spacingLeft=4;spacingRight=4;overflow=hidden;rotatable=0;points=[[0,0.5],[1,0.5]];portConstraint=eastwest;whiteSpace=wrap;html=1;" vertex="1" parent="7e6HY9wKCkgABEW1pDzp-7">
          <mxGeometry y="26" width="160" height="26" as="geometry" />
        </mxCell>
        <mxCell id="7e6HY9wKCkgABEW1pDzp-9" value="# PrimativeOperation1()" style="text;strokeColor=none;fillColor=none;align=left;verticalAlign=top;spacingLeft=4;spacingRight=4;overflow=hidden;rotatable=0;points=[[0,0.5],[1,0.5]];portConstraint=eastwest;whiteSpace=wrap;html=1;" vertex="1" parent="7e6HY9wKCkgABEW1pDzp-7">
          <mxGeometry y="52" width="160" height="26" as="geometry" />
        </mxCell>
        <mxCell id="7e6HY9wKCkgABEW1pDzp-10" value="# PrimativeOperation2()" style="text;strokeColor=none;fillColor=none;align=left;verticalAlign=top;spacingLeft=4;spacingRight=4;overflow=hidden;rotatable=0;points=[[0,0.5],[1,0.5]];portConstraint=eastwest;whiteSpace=wrap;html=1;" vertex="1" parent="7e6HY9wKCkgABEW1pDzp-7">
          <mxGeometry y="78" width="160" height="26" as="geometry" />
        </mxCell>
        <mxCell id="7e6HY9wKCkgABEW1pDzp-11" value="Extends" style="endArrow=block;endSize=16;endFill=0;html=1;rounded=0;exitX=0.5;exitY=0;exitDx=0;exitDy=0;entryX=0.5;entryY=0;entryDx=0;entryDy=0;" edge="1" parent="1" source="7e6HY9wKCkgABEW1pDzp-7" target="7e6HY9wKCkgABEW1pDzp-3">
          <mxGeometry width="160" relative="1" as="geometry">
            <mxPoint x="120" y="120" as="sourcePoint" />
            <mxPoint x="400" y="120" as="targetPoint" />
            <Array as="points">
              <mxPoint x="640" y="120" />
              <mxPoint x="400" y="120" />
            </Array>
          </mxGeometry>
        </mxCell>
        <mxCell id="7e6HY9wKCkgABEW1pDzp-13" style="edgeStyle=orthogonalEdgeStyle;rounded=0;orthogonalLoop=1;jettySize=auto;html=1;entryX=0.25;entryY=0;entryDx=0;entryDy=0;curved=0;endArrow=none;endFill=0;" edge="1" parent="1" source="7e6HY9wKCkgABEW1pDzp-12" target="7e6HY9wKCkgABEW1pDzp-3">
          <mxGeometry relative="1" as="geometry" />
        </mxCell>
        <mxCell id="7e6HY9wKCkgABEW1pDzp-12" value="void TemplateMethod() {&lt;div&gt;&lt;span style=&quot;text-align: left;&quot;&gt;PrimativeOperation1();&lt;/span&gt;&lt;br&gt;&lt;/div&gt;&lt;div&gt;.....&lt;/div&gt;&lt;div&gt;&lt;span style=&quot;text-align: left;&quot;&gt;PrimativeOperation2();&lt;/span&gt;&lt;/div&gt;&lt;div&gt;}&lt;/div&gt;" style="shape=note2;boundedLbl=1;whiteSpace=wrap;html=1;size=25;verticalAlign=top;align=center;" vertex="1" parent="1">
          <mxGeometry x="20" y="160" width="230" height="120" as="geometry" />
        </mxCell>
      </root>
    </mxGraphModel>
  </diagram>
</mxfile>
